<?xml version="1.0" encoding="UTF-8"?>
<svg width="127px" height="30px" viewBox="0 0 127 30" version="1.1" xmlns="http://www.w3.org/2000/svg" xmlns:xlink="http://www.w3.org/1999/xlink">
    <!-- Generator: Sketch 52.3 (67297) - http://www.bohemiancoding.com/sketch -->
    <title>Combined Shape</title>
    <desc>Created with Sketch.</desc>
    <g id="Page-1" stroke="none" stroke-width="1" fill="none" fill-rule="evenodd">
        <g id="Desktop" transform="translate(-458.000000, -531.000000)" fill="#353535">
            <path d="M464.409713,531 L578.590287,531 C580.819084,531 581.627299,531.232064 582.442114,531.667832 C583.256929,532.103599 583.896401,532.743071 584.332168,533.557886 C584.767936,534.372701 585,535.180916 585,537.409713 L585,554.590287 C585,556.819084 584.767936,557.627299 584.332168,558.442114 C583.896401,559.256929 583.256929,559.896401 582.442114,560.332168 C581.627299,560.767936 580.819084,561 578.590287,561 L464.409713,561 C462.180916,561 461.372701,560.767936 460.557886,560.332168 C459.743071,559.896401 459.103599,559.256929 458.667832,558.442114 C458.232064,557.627299 458,556.819084 458,554.590287 L458,537.409713 C458,535.180916 458.232064,534.372701 458.667832,533.557886 C459.103599,532.743071 459.743071,532.103599 460.557886,531.667832 C461.372701,531.232064 462.180916,531 464.409713,531 Z M567.414,539 L566,540.414 L571.475,545.889 L566,551.364 L567.414,552.778 L574.303,545.889 L567.414,539 Z M482.300781,542.749023 L484.057617,542.749023 C485.083008,542.749023 485.725586,543.364258 485.725586,544.321289 C485.725586,545.298828 485.117188,545.893555 484.078125,545.893555 L482.300781,545.893555 L482.300781,542.749023 Z M482.300781,547.390625 L483.955078,547.390625 L485.793945,551 L488.131836,551 L486.053711,547.083008 C487.188477,546.638672 487.844727,545.544922 487.844727,544.280273 C487.844727,542.332031 486.545898,541.135742 484.276367,541.135742 L480.236328,541.135742 L480.236328,551 L482.300781,551 L482.300781,547.390625 Z M492.24707,544.991211 C493.135742,544.991211 493.744141,545.633789 493.785156,546.570312 L490.674805,546.570312 C490.743164,545.654297 491.37207,544.991211 492.24707,544.991211 Z M493.8125,548.757812 C493.62793,549.318359 493.067383,549.680664 492.335938,549.680664 C491.317383,549.680664 490.654297,548.962891 490.654297,547.916992 L490.654297,547.793945 L495.706055,547.793945 L495.706055,547.185547 C495.706055,544.957031 494.359375,543.514648 492.226562,543.514648 C490.05957,543.514648 488.692383,545.032227 488.692383,547.370117 C488.692383,549.714844 490.045898,551.157227 492.301758,551.157227 C494.113281,551.157227 495.425781,550.193359 495.644531,548.757812 L493.8125,548.757812 Z M499.561523,549.673828 C498.884766,549.673828 498.433594,549.332031 498.433594,548.785156 C498.433594,548.265625 498.857422,547.930664 499.602539,547.875977 L501.147461,547.780273 L501.147461,548.313477 C501.147461,549.106445 500.429688,549.673828 499.561523,549.673828 Z M498.905273,551.116211 C499.821289,551.116211 500.730469,550.658203 501.140625,549.878906 L501.181641,549.878906 L501.181641,551 L503.109375,551 L503.109375,545.961914 C503.109375,544.485352 501.885742,543.514648 500.005859,543.514648 C498.064453,543.514648 496.854492,544.492188 496.779297,545.914062 L498.604492,545.914062 C498.700195,545.374023 499.171875,545.004883 499.916992,545.004883 C500.668945,545.004883 501.147461,545.401367 501.147461,546.084961 L501.147461,546.570312 L499.301758,546.679688 C497.476562,546.789062 496.451172,547.561523 496.451172,548.894531 C496.451172,550.213867 497.510742,551.116211 498.905273,551.116211 Z M507.115234,551.116211 C508.195312,551.116211 509.042969,550.548828 509.398438,549.742188 L509.432617,549.742188 L509.432617,551 L511.401367,551 L511.401367,541.135742 L509.405273,541.135742 L509.405273,544.929688 L509.364258,544.929688 C509.008789,544.116211 508.188477,543.555664 507.128906,543.555664 C505.290039,543.555664 504.12793,544.998047 504.12793,547.322266 C504.12793,549.666992 505.283203,551.116211 507.115234,551.116211 Z M507.791992,545.155273 C508.783203,545.155273 509.418945,546.00293 509.418945,547.335938 C509.418945,548.675781 508.783203,549.509766 507.791992,549.509766 C506.787109,549.509766 506.171875,548.682617 506.171875,547.335938 C506.171875,545.996094 506.787109,545.155273 507.791992,545.155273 Z M515.50293,551 L517.499023,551 L517.499023,546.577148 C517.499023,545.756836 518.011719,545.182617 518.770508,545.182617 C519.508789,545.182617 519.953125,545.647461 519.953125,546.433594 L519.953125,551 L521.874023,551 L521.874023,546.549805 C521.874023,545.736328 522.373047,545.182617 523.131836,545.182617 C523.904297,545.182617 524.328125,545.647461 524.328125,546.495117 L524.328125,551 L526.324219,551 L526.324219,545.996094 C526.324219,544.519531 525.360352,543.535156 523.924805,543.535156 C522.851562,543.535156 521.976562,544.116211 521.648438,545.039062 L521.607422,545.039062 C521.361328,544.082031 520.623047,543.535156 519.563477,543.535156 C518.56543,543.535156 517.779297,544.116211 517.47168,544.998047 L517.430664,544.998047 L517.430664,543.671875 L515.50293,543.671875 L515.50293,551 Z M530.952148,551.157227 C533.166992,551.157227 534.582031,549.742188 534.582031,547.329102 C534.582031,544.950195 533.146484,543.514648 530.952148,543.514648 C528.757812,543.514648 527.322266,544.957031 527.322266,547.329102 C527.322266,549.735352 528.737305,551.157227 530.952148,551.157227 Z M530.952148,549.632812 C529.967773,549.632812 529.345703,548.805664 529.345703,547.335938 C529.345703,545.879883 529.981445,545.039062 530.952148,545.039062 C531.922852,545.039062 532.551758,545.879883 532.551758,547.335938 C532.551758,548.805664 531.929688,549.632812 530.952148,549.632812 Z M535.607422,551 L537.603516,551 L537.603516,546.905273 C537.603516,545.873047 538.177734,545.271484 539.162109,545.271484 C539.449219,545.271484 539.722656,545.319336 539.886719,545.387695 L539.886719,543.630859 C539.75,543.589844 539.551758,543.555664 539.319336,543.555664 C538.458008,543.555664 537.835938,544.061523 537.576172,544.991211 L537.535156,544.991211 L537.535156,543.671875 L535.607422,543.671875 L535.607422,551 Z M543.749023,544.991211 C544.637695,544.991211 545.246094,545.633789 545.287109,546.570312 L542.176758,546.570312 C542.245117,545.654297 542.874023,544.991211 543.749023,544.991211 Z M545.314453,548.757812 C545.129883,549.318359 544.569336,549.680664 543.837891,549.680664 C542.819336,549.680664 542.15625,548.962891 542.15625,547.916992 L542.15625,547.793945 L547.208008,547.793945 L547.208008,547.185547 C547.208008,544.957031 545.861328,543.514648 543.728516,543.514648 C541.561523,543.514648 540.194336,545.032227 540.194336,547.370117 C540.194336,549.714844 541.547852,551.157227 543.803711,551.157227 C545.615234,551.157227 546.927734,550.193359 547.146484,548.757812 L545.314453,548.757812 Z" id="Combined-Shape"></path>
        </g>
    </g>
</svg>
